<svg class="svg-icon" style="width: 1em; height: 1em;vertical-align: middle;fill: currentColor;overflow: hidden;" viewBox="0 0 1024 1024" version="1.1" xmlns="http://www.w3.org/2000/svg"><path d="M554.005333 682.005333l0-340.010667 85.994667 0 0 340.010667-85.994667 0zM512 853.994667q140.010667 0 241.002667-100.992t100.992-241.002667-100.992-241.002667-241.002667-100.992-241.002667 100.992-100.992 241.002667 100.992 241.002667 241.002667 100.992zM512 85.994667q176 0 300.992 124.992t124.992 300.992-124.992 300.992-300.992 124.992-300.992-124.992-124.992-300.992 124.992-300.992 300.992-124.992zM384 682.005333l0-340.010667 85.994667 0 0 340.010667-85.994667 0z"  /></svg>